:SAMPLES-PER-SECOND 30
:FULLY-SPECIFIED
:DEGREES
128
root  -58.2812 38.8435 22.8358 -173.812 4.20056 167.659
RightUpLeg  -0.820239 -2.62225 3.52766
RightLeg  22.7356 -4.57064 -2.33664
RightFoot  -22.9077 -1.64829 -14.5501
RightToes  1.16414e-010 0 -3.6325e-017
Spine  10.0652 3.33089 6.79085
Spine1  -0.342872 5.96009 -10.1189
HEad  -19.2607 -5.48831 2.86602
LeftShoulder1  7.18737 -10.4919 -44.7306
LeftArm  4.73877 38.6982 -20.8526
LeftForeArm  176.153 -60.7492 -162.889
LeftHand  -0.244104 0.0205437 5.32207
RightShoulder  6.52882 9.9543 42.2299
RightArm  6.23506 -15.3724 37.2913
RightForeArm  162.622 65.3101 157.874
RightHand  0.00111312 -9.15352 -1.48467
LeftUpLeg  -26.1331 3.27066 -1.10805
LeftLeg  52.7693 5.34586 7.91856
LeftFoot  -10.0827 0.115893 -4.95001
LeftToes  9.04034e-010 7.59002e-011 -1.12606e-011
129
root  -58.3192 39.813 21.0045 -173.245 5.34339 166.979
RightUpLeg  3.14294 -6.15038 0.239499
RightLeg  17.3265 1.06859 0.511432
RightFoot  -14.4606 -0.409029 -11.0182
RightToes  1.16414e-010 0 -3.6325e-017
Spine  9.23601 4.42133 5.61769
Spine1  -1.60162 6.95877 -11.8273
HEad  -17.6782 -6.83048 3.18646
LeftShoulder1  7.07358 -10.6442 -43.4895
LeftArm  5.87615 42.7301 -20.3471
LeftForeArm  179.539 -59.5716 -163.945
LeftHand  -0.244104 0.0205437 5.32207
RightShoulder  6.41953 9.90283 41.6438
RightArm  9.01345 -15.1618 38.3109
RightForeArm  165.577 63.0576 160.159
RightHand  -0.0399138 -8.48181 -0.271208
LeftUpLeg  -27.0406 3.63668 -3.67201
LeftLeg  41.0111 7.22204 7.05809
LeftFoot  -10.4846 0.103861 -5.4481
LeftToes  9.04034e-010 7.59002e-011 -1.12606e-011
130
root  -58.352 40.6179 19.1565 -172.736 5.5762 167.198
RightUpLeg  5.53843 -9.32137 -1.95704
RightLeg  15.1293 5.20945 2.22682
RightFoot  -5.5223 0.288554 -6.42439
RightToes  1.16414e-010 0 -3.6325e-017
Spine  7.57274 4.83876 4.82727
Spine1  -1.39895 7.27719 -12.2325
HEad  -16.3552 -7.45612 2.77576
LeftShoulder1  7.17241 -11.0321 -42.8861
LeftArm  4.7126 46.1303 -21.5407
LeftForeArm  -178.831 -58.9865 -164.44
LeftHand  -0.244104 0.0205437 5.32207
RightShoulder  6.27346 10.0315 40.2009
RightArm  11.4818 -15.5152 38.7501
RightForeArm  171.068 61.442 161.935
RightHand  -0.11442 -8.28964 2.60286
LeftUpLeg  -26.8741 6.26804 -6.76254
LeftLeg  28.6097 7.6196 4.97587
LeftFoot  -10.4568 0.104935 -5.43252
LeftToes  9.04034e-010 7.59002e-011 -1.12606e-011
131
root  -58.404 41.0582 17.3481 -172.773 5.32376 167.82
RightUpLeg  5.8009 -10.2882 -2.76717
RightLeg  17.8448 7.83008 2.83985
RightFoot  2.23278 0.153471 -1.18702
RightToes  1.16414e-010 0 -3.6325e-017
Spine  6.24438 4.68181 3.95297
Spine1  -0.534135 7.01284 -11.6591
HEad  -15.6638 -7.16437 2.74789
LeftShoulder1  7.20774 -11.165 -42.6975
LeftArm  2.46181 47.6524 -23.6378
LeftForeArm  179.686 -59.4684 -164.015
LeftHand  -0.244104 0.0205437 5.32207
RightShoulder  6.13497 10.1583 38.8255
RightArm  13.6948 -15.9878 38.87
RightForeArm  172.852 61.4883 162.056
RightHand  -0.147638 -8.32536 3.82634
LeftUpLeg  -26.0538 10.9309 -10.4891
LeftLeg  18.8124 6.04669 2.06907
LeftFoot  -10.71 0.102107 -7.30513
LeftToes  9.04034e-010 7.59002e-011 -1.12606e-011
132
root  -58.5041 40.958 15.6389 -173.854 5.05142 168.638
RightUpLeg  4.35665 -7.12958 -2.79062
RightLeg  25.7069 8.71546 4.34716
RightFoot  7.57989 -0.822365 5.26827
RightToes  1.16414e-010 0 -3.6325e-017
Spine  6.32009 4.26131 2.97357
Spine1  0.276004 6.39835 -10.6557
HEad  -15.0638 -6.22007 3.16056
LeftShoulder1  7.31837 -11.2705 -43.0634
LeftArm  0.243216 47.3389 -25.1835
LeftForeArm  178.846 -60.5758 -163.244
LeftHand  -0.244104 0.0205437 5.32207
RightShoulder  6.06052 10.1402 38.3605
RightArm  15.5662 -16.1945 38.1373
RightForeArm  170.134 63.2962 160.417
RightHand  -0.12883 -8.38236 3.03672
LeftUpLeg  -24.5411 11.7968 -12.0464
LeftLeg  14.4379 8.18985 -0.575759
LeftFoot  -11.3225 0.0721214 -9.61076
LeftToes  9.04034e-010 7.59002e-011 -1.12606e-011
133
root  -58.6563 40.3587 13.98 -175.722 5.54099 169.633
RightUpLeg  1.97818 -3.56976 -3.22689
RightLeg  36.9527 9.35706 7.24808
RightFoot  9.73013 -2.13589 11.891
RightToes  1.16414e-010 0 -3.6325e-017
Spine  7.26953 3.99437 2.27726
Spine1  1.1574 5.88066 -9.58932
HEad  -14.4085 -4.90397 3.27762
LeftShoulder1  7.5354 -11.5068 -43.6809
LeftArm  -1.55019 46.2162 -26.2125
LeftForeArm  -179.26 -61.0835 -163.077
LeftHand  -0.244104 0.0205437 5.32207
RightShoulder  5.98559 10.036 38.1561
RightArm  16.8542 -16.3617 36.795
RightForeArm  166.817 65.4846 158.173
RightHand  -0.102721 -8.30149 2.16581
LeftUpLeg  -23.2653 10.9192 -12.8273
LeftLeg  15.5748 10.4656 -0.786194
LeftFoot  -11.0252 0.0794297 -7.96933
LeftToes  9.04034e-010 7.59002e-011 -1.12606e-011
134
root  -58.8112 39.5435 12.2638 -177.801 7.03477 170.241
RightUpLeg  -1.41395 -0.682671 -4.77151
RightLeg  49.2079 7.34517 8.59157
RightFoot  9.03921 -2.68625 15.2245
RightToes  1.16414e-010 0 -3.6325e-017
Spine  8.425 3.83937 1.21368
Spine1  1.78434 5.41158 -8.25815
HEad  -14.6066 -3.27457 2.4528
LeftShoulder1  7.43542 -11.3142 -43.6564
LeftArm  -2.71644 44.3195 -27.6133
LeftForeArm  -177.945 -61.2091 -163.116
LeftHand  -0.244104 0.0205437 5.32207
RightShoulder  5.83869 9.90521 37.5186
RightArm  17.4211 -16.7262 35.9755
RightForeArm  164.072 67.9024 155.299
RightHand  -0.0822777 -7.85192 1.73598
LeftUpLeg  -22.9631 13.0404 -15.3754
LeftLeg  20.6226 7.53344 1.98428
LeftFoot  -9.80019 0.0792734 -1.54391
LeftToes  9.04034e-010 7.59002e-011 -1.12606e-011
135
root  -58.9237 38.7761 10.5236 179.999 8.84398 169.99
RightUpLeg  -6.00975 1.83889 -7.44435
RightLeg  60.3788 3.18259 5.44798
RightFoot  6.78097 -2.015 12.8066
RightToes  1.16414e-010 0 -3.6325e-017
Spine  10.0269 3.49207 -0.786119
Spine1  1.75971 4.68064 -6.66131
HEad  -16.4359 -1.43194 0.82626
LeftShoulder1  7.09661 -10.5347 -44.0019
LeftArm  -2.69869 40.0433 -27.2203
LeftForeArm  179.472 -62.7393 -161.758
LeftHand  -0.244104 0.0205437 5.32207
RightShoulder  5.90406 9.87159 38.0906
RightArm  16.5214 -16.9948 35.3544
RightForeArm  157.825 72.2199 147.903
RightHand  -0.0482072 -7.08477 0.50111
LeftUpLeg  -22.3657 11.9061 -16.462
LeftLeg  27.5399 8.09148 5.10494
LeftFoot  -10.4357 0.0352845 4.83091
LeftToes  9.04034e-010 7.59002e-011 -1.12606e-011
136
root  -58.9896 38.2051 8.89755 177.707 10.0894 169.165
RightUpLeg  -11.5896 3.82699 -10.3924
RightLeg  68.6318 -0.00177566 -0.67261
RightFoot  3.99039 -0.81858 6.23941
RightToes  1.16414e-010 0 -3.6325e-017
Spine  12.4744 2.91425 -3.04272
Spine1  1.28914 3.7553 -5.61689
HEad  -17.7396 1.10072 1.65659
LeftShoulder1  7.08901 -10.0471 -45.5793
LeftArm  -1.80147 33.3027 -23.9115
LeftForeArm  175.481 -66.004 -158.588
LeftHand  -0.244104 0.0205437 5.32207
RightShoulder  6.32285 9.98292 40.6982
RightArm  12.7646 -18.1533 34.5656
RightForeArm  143.068 77.8266 129.309
RightHand  -0.0174619 -6.55143 -1.56011
LeftUpLeg  -20.8299 11.3409 -16.8614
LeftLeg  34.2 9.73534 7.39045
LeftFoot  -14.1472 0.233221 6.54632
LeftToes  9.04034e-010 7.59002e-011 -1.12606e-011
137
root  -59.0348 37.9554 7.34767 175.995 10.3995 168.72
RightUpLeg  -17.4874 4.95234 -12.4158
RightLeg  72.141 -1.475 -5.96729
RightFoot  1.0786 -0.0357341 0.440534
RightToes  1.16414e-010 0 -3.6325e-017
Spine  14.5429 2.15725 -4.55659
Spine1  1.16679 2.66249 -4.92259
HEad  -18.5149 2.92393 2.21858
LeftShoulder1  7.56003 -10.4352 -47.3142
LeftArm  -1.151 26.7307 -20.5691
LeftForeArm  174.473 -68.6555 -155.712
LeftHand  -0.244104 0.0205437 5.32207
RightShoulder  6.67749 10.0125 43.0655
RightArm  6.98073 -21.8365 33.7395
RightForeArm  124.253 80.5271 105.225
RightHand  0.00470623 -6.74676 -3.18167
LeftUpLeg  -17.8972 12.9487 -16.932
LeftLeg  37.4339 9.49739 8.09213
LeftFoot  -18.3837 0.414194 4.93958
LeftToes  9.04034e-010 7.59002e-011 -1.12606e-011
